<svg width="14" height="30" viewBox="0 0 14 30" fill="none" xmlns="http://www.w3.org/2000/svg">
<g clip-path="url(#clip0_11_215)">
<mask id="mask0_11_215" style="mask-type:luminance" maskUnits="userSpaceOnUse" x="0" y="0" width="14" height="30">
<path d="M13.77 0.5H0V29.04H13.77V0.5Z" fill="white"/>
</mask>
<g mask="url(#mask0_11_215)">
<path d="M13.77 22.15V5.85C13.77 4.38 13.17 3.04 12.2 2.07C11.23 1.1 9.89 0.5 8.41 0.5C6.98 0.5 5.64 1.06 4.63 2.07C3.62 3.08 3.06 4.42 3.06 5.85V22.15C3.06 24.26 4.78 25.97 6.88 25.97C8.99 25.97 10.7 24.26 10.7 22.15V5.85C10.7 5.64 10.61 5.45 10.48 5.31C10.34 5.17 10.15 5.09 9.94 5.09C9.52 5.09 9.18 5.43 9.18 5.85V22.15C9.18 23.42 8.15 24.45 6.88 24.45C5.61 24.45 4.58 23.42 4.58 22.15V5.85C4.58 4.83 4.98 3.86 5.7 3.14C6.42 2.42 7.39 2.02 8.41 2.02C10.52 2.02 12.24 3.74 12.24 5.85V22.15C12.24 25.11 9.83 27.51 6.88 27.51C3.92 27.51 1.52 25.1 1.52 22.15V5.85C1.52 5.43 1.18 5.09 0.76 5.09C0.34 5.09 0 5.43 0 5.85V22.15C0 25.95 3.09 29.03 6.88 29.03C10.68 29.04 13.77 25.95 13.77 22.15Z" fill="#B6B6B5"/>
</g>
</g>
<defs>
<clipPath id="clip0_11_215">
<rect width="14" height="29" fill="white" transform="translate(0 0.5)"/>
</clipPath>
</defs>
</svg>
